<svg width="46" height="47" viewBox="0 0 46 47" fill="none" xmlns="http://www.w3.org/2000/svg">
<g id="fluent:target-arrow-16-filled">
<path id="Vector" d="M34.5001 4.81239C34.5006 4.5277 34.4166 4.24928 34.2586 4.01241C34.1007 3.77554 33.876 3.59089 33.613 3.48188C33.3501 3.37287 33.0606 3.3444 32.7814 3.40008C32.5023 3.45576 32.2459 3.59308 32.0448 3.79464L26.2948 9.54464C26.1614 9.67838 26.0557 9.8371 25.9837 10.0117C25.9116 10.1864 25.8748 10.3735 25.8751 10.5624V18.5923L23.7447 20.7198C23.3185 20.6067 22.8721 20.5929 22.4398 20.6796C22.0074 20.7662 21.6008 20.9509 21.2511 21.2195C20.9014 21.4881 20.618 21.8334 20.4228 22.2287C20.2276 22.6241 20.1257 23.059 20.1251 23.4999C20.1253 23.909 20.2128 24.3134 20.3818 24.6861C20.5508 25.0587 20.7974 25.3909 21.1051 25.6606C21.4127 25.9303 21.7745 26.1312 22.166 26.2499C22.5576 26.3686 22.9699 26.4024 23.3756 26.3489C23.7812 26.2955 24.1708 26.1561 24.5183 25.94C24.8657 25.724 25.1631 25.4362 25.3904 25.0961C25.6177 24.7559 25.7699 24.3711 25.8366 23.9674C25.9033 23.5638 25.8831 23.1505 25.7773 22.7553L27.9077 20.6249H35.9376C36.1265 20.6252 36.3136 20.5883 36.4882 20.5163C36.6629 20.4443 36.8216 20.3385 36.9553 20.2051L42.7053 14.4551C42.9069 14.2541 43.0442 13.9977 43.0999 13.7185C43.1556 13.4393 43.1271 13.1499 43.0181 12.8869C42.9091 12.6239 42.7244 12.3992 42.4876 12.2413C42.2507 12.0834 41.9723 11.9994 41.6876 11.9999H34.5001V4.81239ZM40.0891 21.1366C40.5838 24.7165 39.9417 28.3613 38.2534 31.5566C36.5652 34.7519 33.916 37.3363 30.6799 38.9449C27.4437 40.5535 23.7841 41.1051 20.2176 40.5219C16.6511 39.9387 13.3578 38.2501 10.8027 35.6944C8.24755 33.1388 6.55958 29.8452 5.97705 26.2786C5.39453 22.7119 5.94688 19.0524 7.55614 15.8166C9.16539 12.5808 11.7503 9.93216 14.9459 8.24451C18.1415 6.55686 21.7865 5.91547 25.3662 6.41089L24.2651 7.51201C23.8642 7.91242 23.5461 8.38792 23.329 8.91132C23.112 9.43472 23.0002 9.99576 23.0001 10.5624C20.4413 10.5624 17.94 11.3212 15.8124 12.7427C13.6848 14.1643 12.0266 16.1849 11.0474 18.5489C10.0682 20.9129 9.81198 23.5142 10.3112 26.0239C10.8104 28.5335 12.0426 30.8387 13.8519 32.6481C15.6612 34.4574 17.9665 35.6896 20.4761 36.1888C22.9857 36.688 25.587 36.4318 27.9511 35.4526C30.3151 34.4734 32.3356 32.8151 33.7572 30.6876C35.1788 28.56 35.9376 26.0587 35.9376 23.4999C37.0809 23.4989 38.1771 23.0439 38.9851 22.2349L40.0891 21.1366ZM23.0001 13.4374C21.0099 13.4374 19.0644 14.0275 17.4097 15.1332C15.7549 16.2389 14.4652 17.8105 13.7036 19.6491C12.9419 21.4878 12.7427 23.511 13.1309 25.463C13.5192 27.4149 14.4776 29.2079 15.8848 30.6151C17.2921 32.0224 19.0851 32.9808 21.037 33.369C22.9889 33.7573 25.0122 33.558 26.8508 32.7964C28.6895 32.0348 30.2611 30.7451 31.3668 29.0903C32.4724 27.4355 33.0626 25.4901 33.0626 23.4999H29.098L28.7386 23.8593C28.6695 24.9638 28.2831 26.0248 27.6258 26.9152C26.9686 27.8055 26.0684 28.4873 25.0332 28.8786C23.9981 29.27 22.872 29.3543 21.7901 29.1215C20.7082 28.8886 19.7165 28.3486 18.9339 27.566C18.1514 26.7835 17.6113 25.7918 17.3785 24.7099C17.1457 23.628 17.23 22.5019 17.6214 21.4668C18.0127 20.4316 18.6945 19.5314 19.5848 18.8741C20.4751 18.2169 21.5362 17.8305 22.6407 17.7614L23.0001 17.402V13.4374Z" fill="white"/>
</g>
</svg>
