<svg width="46" height="47" viewBox="0 0 46 47" fill="none" xmlns="http://www.w3.org/2000/svg">
<g id="heroicons-solid:lightning-bolt" clip-path="url(#clip0_39_241)">
<path id="Vector" fill-rule="evenodd" clip-rule="evenodd" d="M6.90002 44.1H39.1001C41.6899 44.1 43.5299 42.9707 44.6477 41.4182C45.6781 39.9853 46.0001 38.3362 46.0001 37.2V23.4C46.0001 22.79 45.7578 22.205 45.3265 21.7736C44.8951 21.3423 44.3101 21.1 43.7001 21.1H36.8001V9.59997C36.8001 7.76997 36.0731 6.01492 34.7791 4.72092C33.4851 3.42692 31.7301 2.69995 29.9001 2.69995H6.90002C5.07002 2.69995 3.31497 3.42692 2.02097 4.72092C0.726964 6.01492 0 7.76997 0 9.59997V37.2C0 38.3339 0.322001 39.9853 1.3524 41.4182C2.47021 42.973 4.31021 44.1 6.90002 44.1ZM39.1001 25.7C39.7101 25.7 40.2951 25.9423 40.7264 26.3737C41.1578 26.805 41.4001 27.39 41.4001 28V37.2C41.4001 37.81 41.1578 38.395 40.7264 38.8264C40.2951 39.2577 39.7101 39.5 39.1001 39.5C38.4901 39.5 37.9051 39.2577 37.4737 38.8264C37.0424 38.395 36.8001 37.81 36.8001 37.2V28C36.8001 27.39 37.0424 26.805 37.4737 26.3737C37.9051 25.9423 38.4901 25.7 39.1001 25.7ZM16.1 18.8C16.1 18.19 16.3424 17.605 16.7737 17.1736C17.205 16.7423 17.79 16.5 18.4 16.5C19.01 16.5 19.5951 16.7423 20.0264 17.1736C20.4577 17.605 20.7 18.19 20.7 18.8C20.7 19.41 20.4577 19.995 20.0264 20.4263C19.5951 20.8577 19.01 21.1 18.4 21.1C17.79 21.1 17.205 20.8577 16.7737 20.4263C16.3424 19.995 16.1 19.41 16.1 18.8ZM18.4 11.9C16.57 11.9 14.815 12.6269 13.521 13.9209C12.227 15.2149 11.5 16.97 11.5 18.8C11.5 20.63 12.227 22.385 13.521 23.679C14.815 24.973 16.57 25.7 18.4 25.7C20.23 25.7 21.9851 24.973 23.2791 23.679C24.5731 22.385 25.3001 20.63 25.3001 18.8C25.3001 16.97 24.5731 15.2149 23.2791 13.9209C21.9851 12.6269 20.23 11.9 18.4 11.9ZM11.5 30.3C10.89 30.3 10.305 30.5423 9.87368 30.9737C9.44234 31.405 9.20002 31.99 9.20002 32.6C9.20002 33.21 9.44234 33.795 9.87368 34.2264C10.305 34.6577 10.89 34.9 11.5 34.9H25.3001C25.9101 34.9 26.4951 34.6577 26.9264 34.2264C27.3577 33.795 27.6001 33.21 27.6001 32.6C27.6001 31.99 27.3577 31.405 26.9264 30.9737C26.4951 30.5423 25.9101 30.3 25.3001 30.3H11.5Z" fill="white"/>
</g>
<defs>
<clipPath id="clip0_39_241">
<rect width="46" height="46" fill="white" transform="translate(0 0.5)"/>
</clipPath>
</defs>
</svg>
