<svg width="46" height="47" viewBox="0 0 46 47" fill="none" xmlns="http://www.w3.org/2000/svg">
<g id="mdi:account-secure">
<path id="Vector" d="M11.4999 15.8334C11.4999 11.5976 14.9308 8.16675 19.1666 8.16675C23.4024 8.16675 26.8333 11.5976 26.8333 15.8334C26.8333 20.0692 23.4024 23.5001 19.1666 23.5001C14.9308 23.5001 11.4999 20.0692 11.4999 15.8334ZM22.9999 35.3834C22.9999 33.5434 23.9583 31.8184 25.2999 30.6684V30.2084C25.2999 29.4609 25.4341 28.7517 25.6449 28.0617C23.6708 27.6017 21.4858 27.3334 19.1666 27.3334C10.6949 27.3334 3.83325 30.7642 3.83325 35.0001V38.8334H22.9999V35.3834ZM42.1666 35.5751V42.2834C42.1666 43.4334 41.0166 44.5834 39.6749 44.5834H29.1333C27.9833 44.5834 26.8333 43.4334 26.8333 42.0918V35.3834C26.8333 34.2334 27.9833 33.0834 29.1333 33.0834V30.2084C29.1333 27.5251 31.8166 25.4167 34.4999 25.4167C37.1833 25.4167 39.8666 27.5251 39.8666 30.2084V33.0834C41.0166 33.0834 42.1666 34.2334 42.1666 35.5751ZM37.3749 30.2084C37.3749 28.6751 36.0333 27.7167 34.4999 27.7167C32.9666 27.7167 31.6249 28.6751 31.6249 30.2084V33.0834H37.3749V30.2084Z" fill="white"/>
</g>
</svg>
